<svg id="equipo" xmlns="http://www.w3.org/2000/svg" viewBox="0 0 179.71 32.5"><defs><style>.mobile-2-cls-1{fill:#ffb700;}.mobile-2-cls-2{fill:#bdbdbd;}</style></defs><title>logo-mobile</title><path class="mobile-2-cls-1" d="M25.2,31.62H7.1a6.44,6.44,0,0,1-5.92-3A9.21,9.21,0,0,1,.2,22a13.2,13.2,0,0,1,1-3.29A12.21,12.21,0,0,1,3.12,15.8a8.24,8.24,0,0,1-.84-2.88,11.25,11.25,0,0,1,.1-3.28A12.36,12.36,0,0,1,5.7,3a9.38,9.38,0,0,1,7-3H30.77L29.59,6.7H12.67a2.62,2.62,0,0,0-2,.86,3.86,3.86,0,0,0-1,2,2.73,2.73,0,0,0,.3,2,1.83,1.83,0,0,0,1.7.82H28.59l-1.18,6.68,0,.19H9.5a3,3,0,0,0-1.31,1.07A4,4,0,0,0,7.49,22a2.75,2.75,0,0,0,.3,2,1.82,1.82,0,0,0,1.7.82H26.41Z"/><path class="mobile-2-cls-1" d="M62.6,32.5l-5.45-2.34a12.07,12.07,0,0,1-2.8,1.21,11.27,11.27,0,0,1-3.08.41H40.88a8.21,8.21,0,0,1-8-4.87q-2.14-4.36-1-10.75A23.55,23.55,0,0,1,36.8,5.06Q41,0,46.49,0H56.87a8.14,8.14,0,0,1,7.9,5.06q2.17,4.59,1,11.1a23.94,23.94,0,0,1-3.05,8.27l1.19.56ZM56.2,21.45a14.24,14.24,0,0,0,1.33-2.76,18.73,18.73,0,0,0,.83-3.11,11.9,11.9,0,0,0-.26-6.11A3.63,3.63,0,0,0,54.51,6.7h-8q-2.58,0-4.54,2.76a14.77,14.77,0,0,0-2.41,6.11A13,13,0,0,0,39.75,22q1,2.93,3.52,2.93h1.59l1.42-8Z"/><path class="mobile-2-cls-1" d="M96.22,20.39a13,13,0,0,1-5.84,8.79,17.36,17.36,0,0,1-9.92,3q-5.46,0-8.63-2.88Q68.27,26,69.27,20.39L72.81.28H79.7l-3.34,19a3.93,3.93,0,0,0,1.42,4,6.91,6.91,0,0,0,4.47,1.36A8.49,8.49,0,0,0,87,23.32a5.94,5.94,0,0,0,2.76-4.08l3.34-19h6.7Z"/><path class="mobile-2-cls-2" d="M106.6,31.78H99.54L105.15,0h7.05Z"/><path class="mobile-2-cls-2" d="M132.46,19.24h-6.77a4.92,4.92,0,0,0-4,1.76,6.48,6.48,0,0,0-1.28,3c-.05.31-.09.54-.11.67a1.63,1.63,0,0,0,0,.36l-1.19,6.75h-6.94l.38-2.18.64-3.61.83-4.73a11.39,11.39,0,0,1,3-6.16,9.22,9.22,0,0,1,6.9-2.72h8.62a2.71,2.71,0,0,0,2-.86,3.58,3.58,0,0,0,.95-1.92,2.89,2.89,0,0,0-.26-2,1.82,1.82,0,0,0-1.71-.91H116.56L117.74,0h18.12a6.4,6.4,0,0,1,5.89,3,9.19,9.19,0,0,1,1,6.62,12.35,12.35,0,0,1-3.3,6.62A9.35,9.35,0,0,1,132.46,19.24Z"/><path class="mobile-2-cls-2" d="M164.81,31.78H154.43a8.21,8.21,0,0,1-8-4.87q-2.14-4.36-1-10.75a23.55,23.55,0,0,1,4.91-11.1Q154.52,0,160,0h10.38a8.14,8.14,0,0,1,7.9,5.06q2.15,4.57,1,11.1a22.37,22.37,0,0,1-4.78,10.75A12.34,12.34,0,0,1,164.81,31.78Zm0-6.89q2.51,0,4.55-2.93a15.76,15.76,0,0,0,2.51-6.39,11.91,11.91,0,0,0-.26-6.11,3.63,3.63,0,0,0-3.59-2.76h-8q-2.58,0-4.54,2.76a14.77,14.77,0,0,0-2.41,6.11A13,13,0,0,0,153.3,22q1,2.93,3.51,2.93Z"/><circle class="mobile-2-cls-1" cx="162.44" cy="15.54" r="6.17"/></svg>