<svg xmlns="http://www.w3.org/2000/svg" viewBox="0 0 179.71 51.9"><defs><style>.light-cls-1{fill:#bdbdbd;}.light-cls-2{fill:#ffb700;}.light-cls-3{fill:#bdbdbd;}</style></defs><title>logo</title><g id="slogan"><path class="light-cls-1" d="M7.12,42.69h-6l.15-.84h6Zm-3.74,7h-1l1.38-7.82h1Z"/><path class="light-cls-1" d="M6.21,46.7a4,4,0,0,1,.59-1.51,3.35,3.35,0,0,1,1.1-1.06,2.83,2.83,0,0,1,1.47-.39,2.21,2.21,0,0,1,1.35.39,2,2,0,0,1,.73,1.06,3.23,3.23,0,0,1,.05,1.51l0,.12a4,4,0,0,1-.59,1.51,3.28,3.28,0,0,1-1.1,1.06,2.87,2.87,0,0,1-1.48.39A2.2,2.2,0,0,1,7,49.39a2,2,0,0,1-.73-1.06,3.21,3.21,0,0,1-.06-1.51Zm1,.12a2.87,2.87,0,0,0,0,1.06,1.42,1.42,0,0,0,.41.78,1.2,1.2,0,0,0,.86.3,1.62,1.62,0,0,0,1-.3,2.32,2.32,0,0,0,.68-.78,3.41,3.41,0,0,0,.37-1.06l0-.12a2.88,2.88,0,0,0,0-1.06,1.45,1.45,0,0,0-.41-.79,1.21,1.21,0,0,0-.87-.3,1.61,1.61,0,0,0-1,.3,2.31,2.31,0,0,0-.68.79,3.48,3.48,0,0,0-.37,1.06Z"/><path class="light-cls-1" d="M12.6,46.7a4,4,0,0,1,.59-1.51,3.35,3.35,0,0,1,1.1-1.06,2.83,2.83,0,0,1,1.47-.39,2.21,2.21,0,0,1,1.35.39,2,2,0,0,1,.73,1.06,3.23,3.23,0,0,1,.05,1.51l0,.12a4,4,0,0,1-.59,1.51,3.28,3.28,0,0,1-1.1,1.06,2.87,2.87,0,0,1-1.48.39,2.2,2.2,0,0,1-1.34-.39,2,2,0,0,1-.73-1.06,3.21,3.21,0,0,1-.06-1.51Zm1,.12a2.87,2.87,0,0,0,0,1.06,1.42,1.42,0,0,0,.41.78,1.2,1.2,0,0,0,.86.3,1.62,1.62,0,0,0,1-.3,2.32,2.32,0,0,0,.68-.78,3.41,3.41,0,0,0,.37-1.06l0-.12a2.88,2.88,0,0,0,0-1.06,1.45,1.45,0,0,0-.41-.79,1.21,1.21,0,0,0-.87-.3,1.61,1.61,0,0,0-1,.3,2.31,2.31,0,0,0-.68.79,3.48,3.48,0,0,0-.37,1.06Z"/><path class="light-cls-1" d="M19.81,49.67h-1l1.45-8.25h1Z"/><path class="light-cls-1" d="M25.16,48.12a.81.81,0,0,0,0-.4.67.67,0,0,0-.32-.34,2.82,2.82,0,0,0-.81-.27A4.81,4.81,0,0,1,23,46.77a1.44,1.44,0,0,1-.63-.53,1.12,1.12,0,0,1-.11-.8,1.74,1.74,0,0,1,.41-.84,2.42,2.42,0,0,1,.86-.62,2.87,2.87,0,0,1,1.18-.23,2.41,2.41,0,0,1,1.15.25,1.43,1.43,0,0,1,.65.66,1.5,1.5,0,0,1,.1.91h-1a.83.83,0,0,0-.19-.68,1,1,0,0,0-.84-.32,1.66,1.66,0,0,0-.69.13,1.1,1.1,0,0,0-.43.32.94.94,0,0,0-.19.41.59.59,0,0,0,0,.37.7.7,0,0,0,.35.28,4.41,4.41,0,0,0,.79.25,4.61,4.61,0,0,1,1.11.39,1.34,1.34,0,0,1,.59.55,1.25,1.25,0,0,1,.08.8,1.78,1.78,0,0,1-.44.89,2.35,2.35,0,0,1-.89.61,3.29,3.29,0,0,1-1.22.22,2.51,2.51,0,0,1-1.25-.27,1.56,1.56,0,0,1-.68-.71,1.52,1.52,0,0,1-.11-.92h1a.85.85,0,0,0,.59,1,1.78,1.78,0,0,0,.6.1,2,2,0,0,0,.7-.11,1.19,1.19,0,0,0,.47-.3A.84.84,0,0,0,25.16,48.12Z"/><path class="light-cls-1" d="M28.28,49.28a2.9,2.9,0,0,1-.43,1,3.2,3.2,0,0,1-.86.91l-.5-.39a4.1,4.1,0,0,0,.37-.48,2.88,2.88,0,0,0,.27-.5,2.65,2.65,0,0,0,.16-.55l.14-.81h1Z"/><path class="light-cls-1" d="M33.61,49.67h-1l1.38-7.82h1Zm3.93,0H33.4l.15-.84h4.13ZM37.62,46H34l.15-.84h3.58Zm1.09-3.36H34.63l.15-.84h4.08Z"/><path class="light-cls-1" d="M39,46.71a4.6,4.6,0,0,1,.55-1.55,3,3,0,0,1,1-1,2.39,2.39,0,0,1,1.31-.37,1.88,1.88,0,0,1,1.17.34,1.75,1.75,0,0,1,.61,1,4.21,4.21,0,0,1,.1,1.47l-.09.52a5.15,5.15,0,0,1-.61,1.46,2.87,2.87,0,0,1-1,1,2.49,2.49,0,0,1-1.3.34,1.73,1.73,0,0,1-1.16-.38,1.92,1.92,0,0,1-.61-1,3.72,3.72,0,0,1,0-1.51Zm1,.11a3.2,3.2,0,0,0,0,1.07,1.39,1.39,0,0,0,.37.78,1.11,1.11,0,0,0,.83.3,1.63,1.63,0,0,0,.86-.22,2.15,2.15,0,0,0,.63-.57,3.84,3.84,0,0,0,.44-.75l.23-1.3a2.68,2.68,0,0,0-.09-.58A1.56,1.56,0,0,0,43,45a1.14,1.14,0,0,0-.42-.36,1.39,1.39,0,0,0-.63-.13,1.53,1.53,0,0,0-.94.3,2.24,2.24,0,0,0-.65.79,3.8,3.8,0,0,0-.35,1.07ZM43.26,45l.28-1.12h.92L43,51.9H42Z"/><path class="light-cls-1" d="M49.75,47.09a4.58,4.58,0,0,1-.46,1.38,2.51,2.51,0,0,1-.89,1,2.61,2.61,0,0,1-1.4.35,1.61,1.61,0,0,1-1.29-.5,2,2,0,0,1-.23-1.67l.66-3.75h1l-.66,3.76a1.66,1.66,0,0,0,0,.81.66.66,0,0,0,.33.4,1.11,1.11,0,0,0,.49.11,2,2,0,0,0,1-.24A1.75,1.75,0,0,0,49,48a2.93,2.93,0,0,0,.33-.93Zm0-3.23h1l-1,5.81h-1l.19-1.34Z"/><path class="light-cls-1" d="M52.4,49.67h-1l1-5.81h1Zm.22-7.36a.71.71,0,0,1,.22-.4.66.66,0,0,1,.47-.17.48.48,0,0,1,.41.17.5.5,0,0,1,.08.4.67.67,0,0,1-.7.56.47.47,0,0,1-.41-.16A.49.49,0,0,1,52.62,42.31Z"/><path class="light-cls-1" d="M54.71,51.9h-1l1.42-8H56L55.93,45Zm4.8-5.07A4.65,4.65,0,0,1,59,48.34a3.08,3.08,0,0,1-1,1,2.25,2.25,0,0,1-1.29.38,2,2,0,0,1-1.2-.32,1.69,1.69,0,0,1-.63-.92,3.93,3.93,0,0,1-.12-1.4l.11-.62A5.38,5.38,0,0,1,55.54,45a2.91,2.91,0,0,1,1-1,2.47,2.47,0,0,1,1.29-.34,1.75,1.75,0,0,1,1.17.37,1.82,1.82,0,0,1,.59,1,4,4,0,0,1,0,1.55Zm-1-.11a3.2,3.2,0,0,0,0-1.07,1.35,1.35,0,0,0-.37-.78,1.14,1.14,0,0,0-.84-.29,1.65,1.65,0,0,0-.67.13,1.85,1.85,0,0,0-.53.35,2.38,2.38,0,0,0-.4.49,3.34,3.34,0,0,0-.28.57l-.25,1.4a2.65,2.65,0,0,0,.17.71,1.19,1.19,0,0,0,.42.54,1.3,1.3,0,0,0,.77.2,1.51,1.51,0,0,0,.93-.3,2.22,2.22,0,0,0,.65-.78,3.72,3.72,0,0,0,.35-1.07Z"/><path class="light-cls-1" d="M61.38,49.67h-1l1-5.81h1L62.2,45Zm-.12-3.15a4.2,4.2,0,0,1,.52-1.42,2.89,2.89,0,0,1,1-1,2.54,2.54,0,0,1,1.37-.36,1.64,1.64,0,0,1,1.26.48,1.78,1.78,0,0,1,.25,1.57L65,49.67H64l.67-3.82a1.41,1.41,0,0,0,0-.73.71.71,0,0,0-.36-.4,1.43,1.43,0,0,0-.63-.13,1.7,1.7,0,0,0-.76.16,1.61,1.61,0,0,0-.55.43,2.33,2.33,0,0,0-.37.63,3.77,3.77,0,0,0-.21.74Zm3.62-.33A3.23,3.23,0,0,1,65.37,45a2.86,2.86,0,0,1,.94-.91,2.5,2.5,0,0,1,1.32-.35,2.09,2.09,0,0,1,1,.22,1.13,1.13,0,0,1,.54.68,2.59,2.59,0,0,1,0,1.2l-.67,3.82h-1l.68-3.83a1.49,1.49,0,0,0,0-.76.65.65,0,0,0-.36-.38,1.62,1.62,0,0,0-.63-.11,1.55,1.55,0,0,0-.6.11,1.57,1.57,0,0,0-.47.31,1.79,1.79,0,0,0-.34.45,1.83,1.83,0,0,0-.18.54Z"/><path class="light-cls-1" d="M72.53,49.77a2.35,2.35,0,0,1-1.35-.36,1.93,1.93,0,0,1-.75-1A2.88,2.88,0,0,1,70.36,47l0-.23A3.88,3.88,0,0,1,71,45.12a3.38,3.38,0,0,1,1.13-1,2.67,2.67,0,0,1,1.29-.35,2,2,0,0,1,1.3.37,1.71,1.71,0,0,1,.6,1,3.81,3.81,0,0,1,0,1.45l-.08.45H70.94l.14-.8h3.34v-.08a2.47,2.47,0,0,0,0-.75,1,1,0,0,0-1.09-.85,1.51,1.51,0,0,0-.84.26,2.13,2.13,0,0,0-.67.74,3.58,3.58,0,0,0-.41,1.18l0,.23a2.3,2.3,0,0,0,0,1,1.29,1.29,0,0,0,1.34,1,1.94,1.94,0,0,0,.93-.21,2.87,2.87,0,0,0,.74-.58l.52.47a3.58,3.58,0,0,1-.94.78A2.8,2.8,0,0,1,72.53,49.77Z"/><path class="light-cls-1" d="M77.09,49.67h-1l1-5.81h1l-.17,1.24ZM77,46.52a3.93,3.93,0,0,1,.56-1.42,3.15,3.15,0,0,1,1-1,2.44,2.44,0,0,1,1.3-.36,1.93,1.93,0,0,1,1,.21,1.13,1.13,0,0,1,.53.67,2.64,2.64,0,0,1,0,1.22l-.67,3.81h-1l.67-3.82a1.66,1.66,0,0,0,0-.74A.65.65,0,0,0,80,44.7a1.29,1.29,0,0,0-.61-.13,1.6,1.6,0,0,0-.7.16,2.07,2.07,0,0,0-.6.43,2.54,2.54,0,0,0-.45.63,2.6,2.6,0,0,0-.25.74Z"/><path class="light-cls-1" d="M85.6,44.61H82.46l.13-.76h3.15Zm-.7-2.17-1,5.79a.83.83,0,0,0,0,.45.33.33,0,0,0,.2.2.88.88,0,0,0,.3,0l.26,0,.21,0-.14.8-.32.07a2.68,2.68,0,0,1-.46,0,1.39,1.39,0,0,1-.65-.15.84.84,0,0,1-.4-.49,1.84,1.84,0,0,1,0-.92l1-5.78Z"/><path class="light-cls-1" d="M89.63,48.12a.81.81,0,0,0,0-.4.67.67,0,0,0-.32-.34,2.82,2.82,0,0,0-.81-.27,4.81,4.81,0,0,1-1.05-.34,1.44,1.44,0,0,1-.63-.53,1.12,1.12,0,0,1-.11-.8,1.74,1.74,0,0,1,.41-.84A2.42,2.42,0,0,1,88,44a2.87,2.87,0,0,1,1.18-.23,2.41,2.41,0,0,1,1.15.25,1.43,1.43,0,0,1,.65.66,1.51,1.51,0,0,1,.1.91H90a.83.83,0,0,0-.19-.68,1,1,0,0,0-.84-.32,1.66,1.66,0,0,0-.69.13,1.1,1.1,0,0,0-.43.32.94.94,0,0,0-.19.41.59.59,0,0,0,0,.37.7.7,0,0,0,.35.28,4.41,4.41,0,0,0,.79.25A4.61,4.61,0,0,1,90,46.7a1.34,1.34,0,0,1,.59.55,1.25,1.25,0,0,1,.08.8,1.79,1.79,0,0,1-.44.89,2.35,2.35,0,0,1-.89.61,3.29,3.29,0,0,1-1.22.22,2.51,2.51,0,0,1-1.25-.27,1.56,1.56,0,0,1-.68-.71,1.52,1.52,0,0,1-.11-.92h1a.85.85,0,0,0,.59,1,1.78,1.78,0,0,0,.6.1,2,2,0,0,0,.7-.11,1.19,1.19,0,0,0,.47-.3A.84.84,0,0,0,89.63,48.12Z"/><path class="light-cls-1" d="M98.71,46.84h-1a2.91,2.91,0,0,0-1.36.27,1.09,1.09,0,0,0-.6.8.86.86,0,0,0,.16.71.93.93,0,0,0,.77.29,1.83,1.83,0,0,0,.84-.19,2.13,2.13,0,0,0,.64-.48,1.28,1.28,0,0,0,.32-.55l.35.48a1.76,1.76,0,0,1-.29.5,3,3,0,0,1-.54.52,3,3,0,0,1-.73.41,2.34,2.34,0,0,1-.88.16,2,2,0,0,1-1-.23,1.33,1.33,0,0,1-.58-.62,1.46,1.46,0,0,1-.09-.87,2,2,0,0,1,1-1.43,3.75,3.75,0,0,1,2-.49h1.15Zm0-1.16a1,1,0,0,0-.16-.83,1.05,1.05,0,0,0-.86-.31,1.73,1.73,0,0,0-.68.13,1.41,1.41,0,0,0-.5.34.9.9,0,0,0-.24.46h-1a1.64,1.64,0,0,1,.43-.81,2.71,2.71,0,0,1,.92-.65,3,3,0,0,1,1.27-.26A2.49,2.49,0,0,1,99,44a1.31,1.31,0,0,1,.65.65,1.81,1.81,0,0,1,.09,1.08l-.48,2.71a4,4,0,0,0-.06.62,2.12,2.12,0,0,0,.05.56l0,.09h-1a1.74,1.74,0,0,1,0-.46,3.71,3.71,0,0,1,.05-.53Z"/><path class="light-cls-1" d="M101.7,49.67h-1l1-5.81h1l-.17,1.24Zm-.1-3.15a3.91,3.91,0,0,1,.56-1.42,3.14,3.14,0,0,1,1-1,2.43,2.43,0,0,1,1.3-.36,1.93,1.93,0,0,1,1,.21,1.13,1.13,0,0,1,.53.67,2.64,2.64,0,0,1,0,1.22l-.67,3.81h-1l.67-3.82a1.66,1.66,0,0,0,0-.74.65.65,0,0,0-.32-.41,1.29,1.29,0,0,0-.61-.13,1.6,1.6,0,0,0-.7.16,2.06,2.06,0,0,0-.6.43,2.53,2.53,0,0,0-.45.63,2.6,2.6,0,0,0-.25.74Z"/><path class="light-cls-1" d="M107.16,46.71a4.47,4.47,0,0,1,.56-1.55,3.13,3.13,0,0,1,1-1,2.32,2.32,0,0,1,1.27-.37,1.84,1.84,0,0,1,1.16.34,1.73,1.73,0,0,1,.6,1,4.29,4.29,0,0,1,.1,1.47l-.09.52a5.43,5.43,0,0,1-.61,1.46,2.86,2.86,0,0,1-.93,1,2.44,2.44,0,0,1-1.29.34,1.67,1.67,0,0,1-1.13-.38,2,2,0,0,1-.62-1,3.59,3.59,0,0,1,0-1.51Zm1,.11a3.25,3.25,0,0,0,0,1.06,1.34,1.34,0,0,0,.36.77,1.12,1.12,0,0,0,.82.29,1.66,1.66,0,0,0,.85-.21,2,2,0,0,0,.61-.55,3.94,3.94,0,0,0,.43-.75l.23-1.3a2.7,2.7,0,0,0-.08-.57,1.51,1.51,0,0,0-.22-.49,1.1,1.1,0,0,0-.41-.35,1.39,1.39,0,0,0-.63-.13,1.53,1.53,0,0,0-.94.29,2.13,2.13,0,0,0-.64.78,3.89,3.89,0,0,0-.35,1.07ZM112,41.42h1l-1.46,8.25h-.92l.11-1.13Z"/><path class="light-cls-1" d="M116.52,49.67h-1.07l4.37-7.82h.69l-.14.69Zm5-2h-4.4l.15-.84h4.4Zm-1.57-5.09.11-.69h.68l1.61,7.82h-1.07Z"/><path class="light-cls-1" d="M125.79,49a1.62,1.62,0,0,0,.68-.15,1.74,1.74,0,0,0,.57-.4,1.36,1.36,0,0,0,.32-.59h1a2.14,2.14,0,0,1-.52,1,3.1,3.1,0,0,1-1,.71,2.68,2.68,0,0,1-1.18.27,2.16,2.16,0,0,1-1.38-.4,1.9,1.9,0,0,1-.67-1.06,3.41,3.41,0,0,1,0-1.44l0-.23a4.11,4.11,0,0,1,.54-1.44,3.15,3.15,0,0,1,1-1.06,2.81,2.81,0,0,1,1.51-.4,2.2,2.2,0,0,1,1.15.28,1.61,1.61,0,0,1,.67.75,2,2,0,0,1,.13,1.08h-1a1.34,1.34,0,0,0-.09-.66,1,1,0,0,0-.39-.47,1.19,1.19,0,0,0-.66-.17,1.6,1.6,0,0,0-1,.31,2.14,2.14,0,0,0-.63.79,3.93,3.93,0,0,0-.32,1l0,.23a3.41,3.41,0,0,0,0,1,1.34,1.34,0,0,0,.35.79A1.2,1.2,0,0,0,125.79,49Z"/><path class="light-cls-1" d="M131.67,49a1.62,1.62,0,0,0,.68-.15,1.74,1.74,0,0,0,.57-.4,1.36,1.36,0,0,0,.32-.59h1a2.14,2.14,0,0,1-.52,1,3.1,3.1,0,0,1-1,.71,2.68,2.68,0,0,1-1.18.27,2.16,2.16,0,0,1-1.38-.4,1.9,1.9,0,0,1-.67-1.06,3.41,3.41,0,0,1,0-1.44l0-.23A4.11,4.11,0,0,1,130,45.2a3.15,3.15,0,0,1,1-1.06,2.81,2.81,0,0,1,1.51-.4,2.2,2.2,0,0,1,1.15.28,1.61,1.61,0,0,1,.67.75,2,2,0,0,1,.13,1.08h-1a1.34,1.34,0,0,0-.09-.66,1,1,0,0,0-.39-.47,1.19,1.19,0,0,0-.66-.17,1.6,1.6,0,0,0-1,.31,2.14,2.14,0,0,0-.63.79,3.93,3.93,0,0,0-.32,1l0,.23a3.41,3.41,0,0,0,0,1,1.34,1.34,0,0,0,.35.79A1.2,1.2,0,0,0,131.67,49Z"/><path class="light-cls-1" d="M137.48,49.77a2.35,2.35,0,0,1-1.35-.36,1.93,1.93,0,0,1-.75-1,2.89,2.89,0,0,1-.07-1.45l0-.23a3.88,3.88,0,0,1,.65-1.61,3.38,3.38,0,0,1,1.13-1,2.67,2.67,0,0,1,1.29-.35,2,2,0,0,1,1.3.37,1.71,1.71,0,0,1,.6,1,3.79,3.79,0,0,1,0,1.45l-.08.45h-4.34l.14-.8h3.34v-.08a2.47,2.47,0,0,0,0-.75,1,1,0,0,0-1.09-.85,1.51,1.51,0,0,0-.84.26,2.13,2.13,0,0,0-.67.74,3.58,3.58,0,0,0-.41,1.18l0,.23a2.31,2.31,0,0,0,0,1,1.29,1.29,0,0,0,1.34,1,1.94,1.94,0,0,0,.93-.21,2.87,2.87,0,0,0,.74-.58l.52.47a3.59,3.59,0,0,1-.94.78A2.8,2.8,0,0,1,137.48,49.77Z"/><path class="light-cls-1" d="M144.69,48.12a.81.81,0,0,0,0-.4.67.67,0,0,0-.32-.34,2.81,2.81,0,0,0-.81-.27,4.83,4.83,0,0,1-1.05-.34,1.44,1.44,0,0,1-.63-.53,1.12,1.12,0,0,1-.11-.8,1.73,1.73,0,0,1,.41-.84A2.42,2.42,0,0,1,143,44a2.87,2.87,0,0,1,1.18-.23,2.41,2.41,0,0,1,1.15.25,1.43,1.43,0,0,1,.65.66,1.51,1.51,0,0,1,.1.91h-1a.83.83,0,0,0-.19-.68,1,1,0,0,0-.84-.32,1.66,1.66,0,0,0-.69.13,1.1,1.1,0,0,0-.43.32.94.94,0,0,0-.19.41.59.59,0,0,0,0,.37.7.7,0,0,0,.35.28,4.4,4.4,0,0,0,.79.25,4.63,4.63,0,0,1,1.11.39,1.34,1.34,0,0,1,.59.55,1.25,1.25,0,0,1,.08.8,1.78,1.78,0,0,1-.44.89,2.35,2.35,0,0,1-.89.61,3.29,3.29,0,0,1-1.22.22,2.51,2.51,0,0,1-1.25-.27,1.56,1.56,0,0,1-.68-.71,1.52,1.52,0,0,1-.11-.92h1a.92.92,0,0,0,.13.65.92.92,0,0,0,.46.34,1.78,1.78,0,0,0,.6.1,2,2,0,0,0,.7-.11,1.2,1.2,0,0,0,.47-.3A.85.85,0,0,0,144.69,48.12Z"/><path class="light-cls-1" d="M150.48,48.12a.81.81,0,0,0,0-.4.67.67,0,0,0-.32-.34,2.81,2.81,0,0,0-.81-.27,4.83,4.83,0,0,1-1.05-.34,1.44,1.44,0,0,1-.63-.53,1.12,1.12,0,0,1-.11-.8,1.73,1.73,0,0,1,.41-.84,2.42,2.42,0,0,1,.86-.62,2.87,2.87,0,0,1,1.18-.23,2.41,2.41,0,0,1,1.15.25,1.43,1.43,0,0,1,.65.66,1.51,1.51,0,0,1,.1.91h-1a.83.83,0,0,0-.19-.68,1,1,0,0,0-.84-.32,1.66,1.66,0,0,0-.69.13,1.1,1.1,0,0,0-.43.32.94.94,0,0,0-.19.41.59.59,0,0,0,0,.37.7.7,0,0,0,.35.28,4.4,4.4,0,0,0,.79.25,4.63,4.63,0,0,1,1.11.39,1.34,1.34,0,0,1,.59.55,1.25,1.25,0,0,1,.08.8,1.78,1.78,0,0,1-.44.89,2.35,2.35,0,0,1-.89.61,3.29,3.29,0,0,1-1.22.22,2.51,2.51,0,0,1-1.25-.27,1.56,1.56,0,0,1-.68-.71,1.52,1.52,0,0,1-.11-.92h1a.92.92,0,0,0,.13.65.92.92,0,0,0,.46.34,1.78,1.78,0,0,0,.6.1,2,2,0,0,0,.7-.11,1.2,1.2,0,0,0,.47-.3A.85.85,0,0,0,150.48,48.12Z"/><path class="light-cls-1" d="M152.87,46.7a4,4,0,0,1,.59-1.51,3.35,3.35,0,0,1,1.1-1.06,2.83,2.83,0,0,1,1.47-.39,2.21,2.21,0,0,1,1.35.39,2,2,0,0,1,.73,1.06,3.24,3.24,0,0,1,.05,1.51l0,.12a4,4,0,0,1-.59,1.51,3.28,3.28,0,0,1-1.1,1.06,2.87,2.87,0,0,1-1.48.39,2.2,2.2,0,0,1-1.34-.39,2,2,0,0,1-.73-1.06,3.22,3.22,0,0,1-.06-1.51Zm1,.12a2.88,2.88,0,0,0,0,1.06,1.42,1.42,0,0,0,.41.78,1.2,1.2,0,0,0,.86.3,1.62,1.62,0,0,0,1-.3,2.31,2.31,0,0,0,.68-.78,3.4,3.4,0,0,0,.37-1.06l0-.12a2.89,2.89,0,0,0,0-1.06,1.45,1.45,0,0,0-.41-.79,1.21,1.21,0,0,0-.87-.3,1.61,1.61,0,0,0-1,.3,2.31,2.31,0,0,0-.68.79,3.47,3.47,0,0,0-.37,1.06Z"/><path class="light-cls-1" d="M160,49.67h-1l1-5.81h1l-.13.91Zm2.68-4.92-.23,0h-.25a1.61,1.61,0,0,0-1.38.71,2.49,2.49,0,0,0-.35.75l-.31.16a4.68,4.68,0,0,1,.42-1.29,2.61,2.61,0,0,1,.75-.93,1.74,1.74,0,0,1,1.09-.35l.24,0,.19.05Z"/><path class="light-cls-1" d="M163.92,49.67h-1l1-5.81h1Zm.22-7.36a.71.71,0,0,1,.22-.4.66.66,0,0,1,.47-.17.48.48,0,0,1,.41.17.5.5,0,0,1,.08.4.67.67,0,0,1-.7.56.47.47,0,0,1-.41-.16A.49.49,0,0,1,164.14,42.31Z"/><path class="light-cls-1" d="M168,49.77a2.35,2.35,0,0,1-1.35-.36,1.93,1.93,0,0,1-.75-1,2.89,2.89,0,0,1-.07-1.45l0-.23a3.88,3.88,0,0,1,.65-1.61,3.38,3.38,0,0,1,1.13-1,2.67,2.67,0,0,1,1.29-.35,2,2,0,0,1,1.3.37,1.71,1.71,0,0,1,.6,1,3.79,3.79,0,0,1,0,1.45l-.08.45h-4.34l.14-.8h3.34v-.08a2.47,2.47,0,0,0,0-.75,1,1,0,0,0-1.09-.85,1.51,1.51,0,0,0-.84.26,2.13,2.13,0,0,0-.67.74,3.58,3.58,0,0,0-.41,1.18l0,.23a2.31,2.31,0,0,0,0,1,1.29,1.29,0,0,0,1.34,1,1.94,1.94,0,0,0,.93-.21,2.87,2.87,0,0,0,.74-.58l.52.47a3.59,3.59,0,0,1-.94.78A2.8,2.8,0,0,1,168,49.77Z"/><path class="light-cls-1" d="M175.22,48.12a.83.83,0,0,0,0-.4.67.67,0,0,0-.32-.34,2.82,2.82,0,0,0-.81-.27,4.81,4.81,0,0,1-1.05-.34,1.44,1.44,0,0,1-.63-.53,1.12,1.12,0,0,1-.11-.8,1.73,1.73,0,0,1,.41-.84,2.42,2.42,0,0,1,.86-.62,2.87,2.87,0,0,1,1.18-.23,2.41,2.41,0,0,1,1.15.25,1.43,1.43,0,0,1,.65.66,1.51,1.51,0,0,1,.1.91h-1a.83.83,0,0,0-.19-.68,1,1,0,0,0-.84-.32,1.66,1.66,0,0,0-.69.13,1.11,1.11,0,0,0-.43.32,1,1,0,0,0-.19.41.59.59,0,0,0,0,.37.7.7,0,0,0,.35.28,4.41,4.41,0,0,0,.79.25,4.62,4.62,0,0,1,1.11.39,1.34,1.34,0,0,1,.59.55,1.25,1.25,0,0,1,.08.8,1.78,1.78,0,0,1-.44.89,2.35,2.35,0,0,1-.89.61,3.29,3.29,0,0,1-1.22.22,2.51,2.51,0,0,1-1.25-.27,1.56,1.56,0,0,1-.68-.71,1.52,1.52,0,0,1-.11-.92h1a.85.85,0,0,0,.59,1,1.78,1.78,0,0,0,.6.1,2,2,0,0,0,.7-.11,1.18,1.18,0,0,0,.47-.3A.84.84,0,0,0,175.22,48.12Z"/></g><g id="equipo"><path class="light-cls-2" d="M25.2,31.62H7.1a6.44,6.44,0,0,1-5.92-3A9.21,9.21,0,0,1,.2,22a13.2,13.2,0,0,1,1-3.29A12.21,12.21,0,0,1,3.12,15.8a8.24,8.24,0,0,1-.84-2.88,11.25,11.25,0,0,1,.1-3.28A12.36,12.36,0,0,1,5.7,3a9.38,9.38,0,0,1,7-3H30.77L29.59,6.7H12.67a2.62,2.62,0,0,0-2,.86,3.86,3.86,0,0,0-1,2,2.73,2.73,0,0,0,.3,2,1.83,1.83,0,0,0,1.7.82H28.59l-1.18,6.68,0,.19H9.5a3,3,0,0,0-1.31,1.07A4,4,0,0,0,7.49,22a2.75,2.75,0,0,0,.3,2,1.82,1.82,0,0,0,1.7.82H26.41Z"/><path class="light-cls-2" d="M62.6,32.5l-5.45-2.34a12.07,12.07,0,0,1-2.8,1.21,11.27,11.27,0,0,1-3.08.41H40.88a8.21,8.21,0,0,1-8-4.87q-2.14-4.36-1-10.75A23.55,23.55,0,0,1,36.8,5.06Q41,0,46.49,0H56.87a8.14,8.14,0,0,1,7.9,5.06q2.17,4.59,1,11.1a23.94,23.94,0,0,1-3.05,8.27l1.19.56ZM56.2,21.45a14.24,14.24,0,0,0,1.33-2.76,18.73,18.73,0,0,0,.83-3.11,11.9,11.9,0,0,0-.26-6.11A3.63,3.63,0,0,0,54.51,6.7h-8q-2.58,0-4.54,2.76a14.77,14.77,0,0,0-2.41,6.11A13,13,0,0,0,39.75,22q1,2.93,3.52,2.93h1.59l1.42-8Z"/><path class="light-cls-2" d="M96.22,20.39a13,13,0,0,1-5.84,8.79,17.36,17.36,0,0,1-9.92,3q-5.46,0-8.63-2.88Q68.27,26,69.27,20.39L72.81.28H79.7l-3.34,19a3.93,3.93,0,0,0,1.42,4,6.91,6.91,0,0,0,4.47,1.36A8.49,8.49,0,0,0,87,23.32a5.94,5.94,0,0,0,2.76-4.08l3.34-19h6.7Z"/><path class="light-cls-3" d="M106.6,31.78H99.54L105.15,0h7.05Z"/><path class="light-cls-3" d="M132.46,19.24h-6.77a4.92,4.92,0,0,0-4,1.76,6.48,6.48,0,0,0-1.28,3c-.05.31-.09.54-.11.67a1.63,1.63,0,0,0,0,.36l-1.19,6.75h-6.94l.38-2.18.64-3.61.83-4.73a11.39,11.39,0,0,1,3-6.16,9.22,9.22,0,0,1,6.9-2.72h8.62a2.71,2.71,0,0,0,2-.86,3.58,3.58,0,0,0,.95-1.92,2.89,2.89,0,0,0-.26-2,1.82,1.82,0,0,0-1.71-.91H116.56L117.74,0h18.12a6.4,6.4,0,0,1,5.89,3,9.19,9.19,0,0,1,1,6.62,12.35,12.35,0,0,1-3.3,6.62A9.35,9.35,0,0,1,132.46,19.24Z"/><path class="light-cls-3" d="M164.81,31.78H154.43a8.21,8.21,0,0,1-8-4.87q-2.14-4.36-1-10.75a23.55,23.55,0,0,1,4.91-11.1Q154.52,0,160,0h10.38a8.14,8.14,0,0,1,7.9,5.06q2.15,4.57,1,11.1a22.37,22.37,0,0,1-4.78,10.75A12.34,12.34,0,0,1,164.81,31.78Zm0-6.89q2.51,0,4.55-2.93a15.76,15.76,0,0,0,2.51-6.39,11.91,11.91,0,0,0-.26-6.11,3.63,3.63,0,0,0-3.59-2.76h-8q-2.58,0-4.54,2.76a14.77,14.77,0,0,0-2.41,6.11A13,13,0,0,0,153.3,22q1,2.93,3.51,2.93Z"/><circle class="light-cls-2" cx="162.44" cy="15.54" r="6.17"/></g></svg>