<svg xmlns="http://www.w3.org/2000/svg" viewBox="0 0 512 512"><path d="M256 0C114.848 0 0 114.848 0 256s114.848 256 256 256 256-114.848 256-256S397.152 0 256 0zm0 480C132.48 480 32 379.488 32 256 32 132.48 132.48 32 256 32c123.488 0 224 100.48 224 224 0 123.488-100.512 224-224 224z"/><path d="M256 64c-13.44 0-26.56 1.408-39.232 4.032 23.296 33.024 44.448 67.392 63.072 103.008 35.232-16.416 68.384-37.6 98.656-62.88C345.248 80.576 302.56 64 256 64zM401.312 130.752c-32.928 27.744-69.152 50.752-107.616 68.736a877.744 877.744 0 0123.456 53.344c42.496-8.736 86.72-9.536 130.56-2.272-1.28-45.76-18.496-87.488-46.4-119.808zM184.64 77.856c-57.632 23.104-101.344 73.28-115.552 134.88 62.144 2.656 123.648-7.712 180.896-29.568-19.232-36.512-41.024-71.712-65.344-105.312zM264.32 212.128c-55.424 21.6-114.624 33.376-174.816 33.376-8.288 0-16.608-.512-24.928-.96C64.352 248.352 64 252.128 64 256c0 47.136 17.056 90.272 45.248 123.68 46.112-57.248 108.096-98.272 176.704-118.88-6.688-16.448-13.92-32.64-21.632-48.672zM328.896 283.136c15.264 42.56 27.232 86.304 36 130.912 43.264-29.856 73.472-76.992 81.056-131.456-39.232-6.944-78.88-6.624-117.056.544zM297.472 290.56c-64.512 18.848-122.784 57.568-165.504 111.872C165.44 430.816 208.672 448 256 448c28.416 0 55.328-6.336 79.584-17.44-8.8-47.808-21.6-94.592-38.112-140z"/></svg>