<svg xmlns="http://www.w3.org/2000/svg" viewBox="0 0 512.011 512.011"><path d="M293.792 152.808c58.304-35.008 89.728 14.336 59.84 70.112-29.952 56-57.44 92.512-71.68 92.512-13.984 0-25.056-37.568-41.44-102.784-16.8-67.552-16.8-189.344-87.072-175.52C87.008 50.248 0 154.248 0 154.248l20.672 27.232s42.88-33.824 57.152-16.992c14.464 16.992 69.216 221.024 87.328 258.752 15.808 33.056 59.68 76.672 107.616 45.568 48.384-31.296 208.096-167.68 236.704-329.056 28.544-161.088-192.512-127.36-215.68 13.056z"/></svg>