<svg viewBox="0 -43 512 512" xmlns="http://www.w3.org/2000/svg"><path d="M74.668 0h-64C4.778 0 0 4.777 0 10.668v64c0 5.887 4.777 10.664 10.668 10.664h64c5.887 0 10.664-4.777 10.664-10.664v-64C85.332 4.778 80.555 0 74.668 0zm0 0M74.668 170.668h-64C4.778 170.668 0 175.445 0 181.332v64C0 251.222 4.777 256 10.668 256h64c5.887 0 10.664-4.777 10.664-10.668v-64c0-5.887-4.777-10.664-10.664-10.664zm0 0M74.668 341.332h-64C4.778 341.332 0 346.113 0 352v64c0 5.887 4.777 10.668 10.668 10.668h64c5.887 0 10.664-4.781 10.664-10.668v-64c0-5.887-4.777-10.668-10.664-10.668zm0 0M170.668 64h320C502.465 64 512 54.465 512 42.668s-9.535-21.336-21.332-21.336h-320c-11.797 0-21.336 9.54-21.336 21.336S158.872 64 170.668 64zm0 0M490.668 192h-320c-11.797 0-21.336 9.535-21.336 21.332s9.54 21.336 21.336 21.336h320c11.797 0 21.332-9.54 21.332-21.336S502.465 192 490.668 192zm0 0M490.668 362.668h-320c-11.797 0-21.336 9.535-21.336 21.332s9.54 21.332 21.336 21.332h320c11.797 0 21.332-9.535 21.332-21.332s-9.535-21.332-21.332-21.332zm0 0"/></svg>