<svg viewBox="0 0 471.701 471.701">
	<g class="compare-loading">
		<path d="M409.6,0c-9.426,0-17.067,7.641-17.067,17.067v62.344C304.667-5.656,164.478-3.386,79.411,84.479
			c-40.09,41.409-62.455,96.818-62.344,154.454c0,9.426,7.641,17.067,17.067,17.067S51.2,248.359,51.2,238.933
			c0.021-103.682,84.088-187.717,187.771-187.696c52.657,0.01,102.888,22.135,138.442,60.976l-75.605,25.207
			c-8.954,2.979-13.799,12.652-10.82,21.606s12.652,13.799,21.606,10.82l102.4-34.133c6.99-2.328,11.697-8.88,11.674-16.247v-102.4
			C426.667,7.641,419.026,0,409.6,0z"/>
		<path d="M443.733,221.867c-9.426,0-17.067,7.641-17.067,17.067c-0.021,103.682-84.088,187.717-187.771,187.696
			c-52.657-0.01-102.888-22.135-138.442-60.976l75.605-25.207c8.954-2.979,13.799-12.652,10.82-21.606
			c-2.979-8.954-12.652-13.799-21.606-10.82l-102.4,34.133c-6.99,2.328-11.697,8.88-11.674,16.247v102.4
			c0,9.426,7.641,17.067,17.067,17.067s17.067-7.641,17.067-17.067v-62.345c87.866,85.067,228.056,82.798,313.122-5.068
			c40.09-41.409,62.455-96.818,62.344-154.454C460.8,229.508,453.159,221.867,443.733,221.867z"/>
	</g>
	<path class="compare-check" d="M235.85,0C105.8,0,0,105.8,0,235.85S105.8,471.7,235.85,471.7,471.7,365.9,471.7,235.85,365.9,0,235.85,0ZM355.39,185.87,227.63,313.62a19.64,19.64,0,0,1-27.79,0L136,249.75A19.65,19.65,0,0,1,163.76,222l50,50L327.6,158.08a19.65,19.65,0,0,1,27.79,27.79Z"/>
</svg>