<svg xmlns="http://www.w3.org/2000/svg" viewBox="0 0 471.7 477.87">
	<path class="wishlist-heart" d="M433.6,67a130.61,130.61,0,0,0-184.7.1L236,80,222.9,66.9a130.49,130.49,0,0,0-184.7-.2,130.49,130.49,0,0,0,.2,184.7L226.2,439.2a13.4,13.4,0,0,0,19,.1L433.4,251.8A130.85,130.85,0,0,0,433.6,67ZM414.4,232.7l-178.7,178L57.4,232.4A103.52,103.52,0,1,1,203.8,86l22.6,22.6a13.46,13.46,0,0,0,19.1,0l22.4-22.4A103.59,103.59,0,0,1,414.4,232.7Z"/>
	<path class="wishlist-loading" d="M409.6,0a17.07,17.07,0,0,0-17.07,17.07V79.41C304.67-5.66,164.48-3.39,79.41,84.48A221.44,221.44,0,0,0,17.07,238.93a17.07,17.07,0,1,0,34.13,0c0-103.68,84.09-187.72,187.77-187.7a187.73,187.73,0,0,1,138.44,61l-75.61,25.21a17.09,17.09,0,0,0,10.79,32.43L415,135.71a17.07,17.07,0,0,0,11.67-16.25V17.07A17.07,17.07,0,0,0,409.6,0Zm34.13,221.87a17.07,17.07,0,0,0-17.07,17.07c0,103.68-84.09,187.72-187.77,187.7a187.73,187.73,0,0,1-138.44-61l75.6-25.21A17.09,17.09,0,1,0,165.27,308L62.87,342.15A17.07,17.07,0,0,0,51.2,358.4V460.8a17.07,17.07,0,0,0,34.13,0V398.46c87.87,85.07,228.06,82.8,313.12-5.07A221.44,221.44,0,0,0,460.8,238.93,17.06,17.06,0,0,0,443.73,221.87Z"/>
	<path class="wishlist-check" d="M434.28,67.09C409.86,40.61,376.36,26,339.93,26c-27.23,0-52.16,8.61-74.12,25.58a151.64,151.64,0,0,0-30,31.29,151.55,151.55,0,0,0-30-31.29C183.93,34.63,159,26,131.77,26,95.34,26,61.83,40.61,37.42,67.09,13.29,93.26,0,129,0,167.78c0,39.89,14.87,76.41,46.78,114.92,28.55,34.45,69.59,69.42,117.11,109.92,16.23,13.83,34.62,29.51,53.72,46.2a27.69,27.69,0,0,0,36.46,0c19.1-16.7,37.5-32.39,53.74-46.22,47.51-40.49,88.55-75.46,117.1-109.91,31.92-38.51,46.78-75,46.78-114.92C471.7,129,458.41,93.26,434.28,67.09Z"/>
</svg>